<?xml version="1.0" standalone="no"?><!DOCTYPE svg PUBLIC "-//W3C//DTD SVG 1.1//EN" "http://www.w3.org/Graphics/SVG/1.1/DTD/svg11.dtd"><svg t="1627797843260" class="icon" viewBox="0 0 1024 1024" version="1.1" xmlns="http://www.w3.org/2000/svg" p-id="3250" xmlns:xlink="http://www.w3.org/1999/xlink" width="32" height="32"><defs><style type="text/css"></style></defs><path d="M725.333333 724.906667c-57.6 0-93.866667 17.92-125.866666 34.133333-27.733333 14.08-50.346667 25.6-87.466667 25.6-38.4 0-59.733333-10.666667-87.466667-25.6-32-16.213333-66.986667-34.133333-125.866666-34.133333s-93.866667 17.92-125.866667 34.133333c-18.346667 9.386667-34.56 17.493333-54.186667 22.186667-19.2 4.266667-33.28 19.626667-33.28 38.826666v4.266667c0 25.6 23.893333 43.946667 48.64 38.826667 31.573333-6.4 55.466667-18.346667 77.226667-29.44 27.733333-14.08 49.92-25.6 87.466667-25.6s59.733333 10.666667 87.466666 25.6c32 16.213333 66.986667 34.133333 125.866667 34.133333s93.866667-17.92 125.866667-34.133333c27.733333-14.08 50.346667-25.6 87.466666-25.6 38.4 0 59.733333 10.666667 87.466667 25.6 22.186667 11.093333 46.08 23.466667 78.08 29.866666a40.106667 40.106667 0 0 0 47.786667-38.826666v-3.84c0-19.626667-14.506667-34.986667-33.706667-39.253334-19.626667-4.266667-35.413333-12.373333-53.76-22.186666-32-16.64-68.266667-34.56-125.866667-34.56z m0-189.866667c-57.6 0-93.866667 18.346667-125.866666 34.133333-27.733333 13.653333-50.346667 25.6-87.466667 25.6-38.4 0-59.733333-10.666667-87.466667-25.6-32-16.213333-66.986667-34.133333-125.866666-34.133333s-93.866667 18.346667-125.866667 34.133333c-18.346667 8.96-34.56 17.493333-54.613333 22.186667-18.773333 4.266667-32.853333 19.626667-32.853334 38.826667v4.266666a39.68 39.68 0 0 0 47.786667 38.826667c32-6.4 55.893333-18.773333 78.08-29.44 27.733333-14.933333 49.066667-25.6 87.466667-25.6s59.733333 10.666667 87.466666 25.6c32 16.213333 66.986667 34.133333 125.866667 34.133333s93.866667-18.346667 125.866667-34.133333c27.733333-14.933333 49.066667-25.6 87.466666-25.6s59.733333 10.666667 87.466667 25.6c22.186667 11.093333 46.08 23.466667 78.08 29.866667a40.106667 40.106667 0 0 0 47.786667-39.253334v-3.84c0-19.626667-14.506667-34.986667-33.706667-39.253333-19.626667-4.266667-35.413333-12.373333-53.76-22.186667-32-16.213333-68.266667-34.133333-125.866667-34.133333z m125.866667-344.746667c-32-16.213333-67.413333-34.133333-125.866667-34.133333s-93.866667 17.92-125.866666 34.133333c-27.733333 13.653333-50.346667 25.6-87.466667 25.6-38.4 0-59.733333-10.666667-87.466667-25.6-32-15.786667-66.986667-34.133333-125.866666-34.133333s-93.866667 17.92-125.866667 34.133333c-18.346667 9.386667-34.56 17.493333-54.186667 22.186667-19.2 4.266667-33.28 19.626667-33.28 38.826667v2.986666c0 25.6 23.04 44.373333 47.786667 39.253334 32-6.4 55.893333-18.773333 78.08-29.44 27.733333-14.08 49.92-25.6 87.466667-25.6s59.733333 10.666667 87.466666 25.6c32 16.213333 66.986667 34.133333 125.866667 34.133333s93.866667-18.346667 125.866667-34.133333c27.733333-13.653333 50.346667-25.6 87.466666-25.6 38.4 0 59.733333 10.666667 87.466667 25.6 22.186667 11.093333 46.08 23.466667 78.08 29.866666A40.106667 40.106667 0 0 0 938.666667 254.72v-3.84c0-19.626667-14.506667-34.986667-33.706667-39.253333-19.626667-4.266667-35.413333-11.946667-53.76-21.333334zM725.333333 345.173333c-57.6 0-93.866667 18.346667-125.866666 34.133334-27.733333 14.933333-49.066667 25.6-87.466667 25.6s-59.733333-10.666667-87.466667-25.6c-32-16.213333-66.986667-34.133333-125.866666-34.133334s-93.866667 18.346667-125.866667 34.133334c-18.346667 9.813333-34.133333 17.92-53.76 22.186666-19.2 4.266667-33.706667 19.626667-33.706667 39.253334v3.84a39.68 39.68 0 0 0 47.786667 38.826666c32-6.4 55.893333-18.773333 78.08-29.44 27.733333-13.653333 50.346667-25.6 87.466667-25.6s59.733333 10.666667 87.466666 25.6c32 16.213333 66.986667 34.133333 125.866667 34.133334s93.866667-18.346667 125.866667-34.133334c27.733333-13.653333 50.346667-25.6 87.466666-25.6 38.4 0 59.733333 10.666667 87.466667 25.6 22.186667 11.093333 46.08 23.466667 78.08 29.866667a40.106667 40.106667 0 0 0 47.786667-38.826667v-3.84c0-19.626667-14.506667-34.986667-33.706667-39.253333-19.626667-4.266667-35.413333-12.373333-53.76-22.186667-32-16.64-68.266667-34.56-125.866667-34.56z" p-id="3251"></path></svg>