<?xml version="1.0" standalone="no"?><!DOCTYPE svg PUBLIC "-//W3C//DTD SVG 1.1//EN" "http://www.w3.org/Graphics/SVG/1.1/DTD/svg11.dtd"><svg t="1627888629706" class="icon" viewBox="0 0 1024 1024" version="1.1" xmlns="http://www.w3.org/2000/svg" p-id="6638" xmlns:xlink="http://www.w3.org/1999/xlink" width="200" height="200"><defs><style type="text/css"></style></defs><path d="M704 64a42.666667 42.666667 0 0 1 42.666667 42.666667v42.666666h106.666666a42.666667 42.666667 0 0 1 42.666667 42.666667v725.333333a42.666667 42.666667 0 0 1-42.666667 42.666667H170.666667a42.666667 42.666667 0 0 1-42.666667-42.666667V192a42.666667 42.666667 0 0 1 42.666667-42.666667h106.666666V106.666667a42.666667 42.666667 0 0 1 42.666667-42.666667h384z m-426.666667 170.666667h-64v640h597.333334V234.666667h-64v42.666666a42.666667 42.666667 0 0 1-42.666667 42.666667H320a42.666667 42.666667 0 0 1-42.666667-42.666667v-42.666666z m390.250667 219.584l30.165333 30.165333a21.333333 21.333333 0 0 1 0 30.165333l-213.333333 213.333334a21.333333 21.333333 0 0 1-30.165333 0l-128-128a21.333333 21.333333 0 0 1 0-30.165334l30.165333-30.165333a21.333333 21.333333 0 0 1 30.165333 0L469.333333 622.336l168.085334-168.106667a21.333333 21.333333 0 0 1 30.165333 0zM661.333333 149.333333H362.666667v85.333334h298.666666V149.333333z" p-id="6639"></path></svg>