<svg class="icon" viewBox="0 0 1024 1024" xmlns="http://www.w3.org/2000/svg" width="200" height="200"><path d="M838.4 185.6H608v57.6h236.8c32 0 57.6 25.6 57.6 57.6v409.6c0 32-25.6 57.6-57.6 57.6H608v57.6h236.8c64 0 121.6-51.2 121.6-121.6V307.2c-6.4-64-57.6-121.6-128-121.6zm-332.8-83.2h-19.2l-339.2 64C102.4 179.2 64 217.6 64 268.8v480c0 44.8 38.4 89.6 83.2 102.4l339.2 70.4h19.2c51.2 0 89.6-38.4 89.6-89.6V192c-6.4-51.2-44.8-89.6-89.6-89.6zM531.2 832c0 19.2-12.8 25.6-25.6 25.6h-6.4L160 787.2c-19.2 0-32-19.2-32-38.4v-480c0-19.2 12.8-38.4 32-38.4l339.2-64h6.4c12.8 0 25.6 12.8 25.6 25.6v640z"/><path d="M832 473.6H608v64h224c19.2 0 32-12.8 32-32s-12.8-32-32-32zm0 153.6H608v64h224c19.2 0 32-12.8 32-32s-12.8-32-32-32zM864 352c0-19.2-12.8-32-32-32H608v64h224c19.2 0 32-12.8 32-32zM339.2 454.4c-51.2 0-96-51.2-96-108.8s44.8-108.8 96-108.8 96 51.2 96 108.8-38.4 108.8-96 108.8zm0-153.6c-19.2 0-32 19.2-32 44.8s12.8 44.8 32 44.8 32-19.2 32-44.8-12.8-44.8-32-44.8zm25.6 192H288L166.4 755.2h70.4l32-64H384l51.2 115.2h70.4L364.8 492.8zm-64 134.4 25.6-57.6 25.6 57.6h-51.2z"/></svg>