<?xml version="1.0" standalone="no"?><!DOCTYPE svg PUBLIC "-//W3C//DTD SVG 1.1//EN" "http://www.w3.org/Graphics/SVG/1.1/DTD/svg11.dtd"><svg t="1634284771202" class="icon" viewBox="0 0 1024 1024" version="1.1" xmlns="http://www.w3.org/2000/svg" p-id="3733" xmlns:xlink="http://www.w3.org/1999/xlink" width="200" height="200"><defs><style type="text/css"></style></defs><path d="M768 512v0.288a254.4 254.4 0 0 1-75.008 180.704l45.248 45.248c57.92-57.92 93.728-137.92 93.728-226.272s-35.808-168.352-93.728-226.272l-45.248 45.312A254.4 254.4 0 0 1 768 511.712v0.32z m128 0v0.512c0 105.888-42.976 201.728-112.448 271.008l45.248 45.248c81.088-81.088 131.232-193.088 131.232-316.8s-50.144-235.712-131.232-316.8l-45.248 45.248a381.696 381.696 0 0 1 112.48 271.04V512v-0.032z m-202.976 226.272a32 32 0 0 0 45.248-45.248 32 32 0 0 0-45.248 45.248z m90.496 90.496a32 32 0 0 0 45.248-45.248 32 32 0 0 0-45.248 45.248z m-90.496-497.792a32 32 0 0 0 45.248-45.248 32 32 0 0 0-45.248 45.248z m90.496-90.528A32 32 0 0 0 828.768 195.2a32 32 0 0 0-45.248 45.248zM544 125.536h-19.424a63.68 63.68 0 0 0-43.776 17.376l0.032-0.032-188.512 177.088H127.968a32 32 0 0 0-32 32v320a32 32 0 0 0 32 32h164.352l188.512 177.088c11.392 10.752 26.784 17.376 43.744 17.376H544a64.064 64.064 0 0 0 64-64V189.504a64.064 64.064 0 0 0-64-64zM256 656H160V384h96z m288 178.464h-19.328L320 642.176v-260.32l204.672-192.288H544v644.928z" p-id="3734"></path></svg>