<svg class="icon" viewBox="0 0 1024 1024" xmlns="http://www.w3.org/2000/svg" width="200" height="200"><path d="M768 712.544 644.256 298.688l81.056-200.544c4.256-12.8 4.256-29.856-4.256-38.4-12.8-8.544-25.6-17.056-38.4-17.056H341.312c-12.8 0-25.6 8.544-34.144 17.056s-12.8 29.856-4.256 42.656l76.8 196.256-123.744 413.856c-4.256 17.056 0 29.856 12.8 42.656l213.344 213.344c8.544 8.544 21.344 12.8 29.856 12.8s21.344-4.256 29.856-12.8l213.344-213.344c12.8-12.8 17.056-25.6 12.8-42.656zM618.656 128l-51.2 128H456.512l-51.2-128h213.344zM512 878.944l-166.4-166.4 110.944-371.2H563.2l110.944 371.2L512 878.944z"/></svg>