<?xml version="1.0" standalone="no"?><!DOCTYPE svg PUBLIC "-//W3C//DTD SVG 1.1//EN" "http://www.w3.org/Graphics/SVG/1.1/DTD/svg11.dtd"><svg t="1629713913762" class="icon" viewBox="0 0 1024 1024" version="1.1" xmlns="http://www.w3.org/2000/svg" p-id="2388" xmlns:xlink="http://www.w3.org/1999/xlink" width="200" height="200"><defs><style type="text/css"></style></defs><path d="M510.739237 100.593749c-226.232978 0-409.607225 183.388697-409.607225 409.607225s183.374247 409.603613 409.607225 409.603612c226.214916 0 409.607225-183.385084 409.607225-409.603612S736.954152 100.593749 510.739237 100.593749z m0 766.919861c-197.329345 0-357.312637-159.96523-357.312637-357.312636s159.983292-357.316249 357.312637-357.31625c197.347407 0 357.316249 159.968842 357.316249 357.31625s-159.968842 357.312637-357.316249 357.312636z" fill="" p-id="2389"></path><path d="M615.902801 620.140267l66.686799-95.969746a24.474705 24.474705 0 0 0 0-27.93187l-66.686799-95.97697 63.529472-60.95737a24.474705 24.474705 0 0 0-33.888888-35.323051l-78.608057 75.425443a24.474705 24.474705 0 0 0-3.157328 31.627461l68.904876 99.170422-68.904876 99.16681a24.478318 24.478318 0 0 0 3.157328 31.631073l78.608057 75.425443a24.384393 24.384393 0 0 0 16.942638 6.809568 24.474705 24.474705 0 0 0 16.949862-42.136231l-63.533084-60.960982z m-161.359656-240.740789l-78.61167-75.425443a24.474705 24.474705 0 0 0-33.892499 35.319439l63.529471 60.960982-66.679574 95.980582a24.474705 24.474705 0 0 0 0 27.931871l66.683187 95.969745-63.529472 60.953757a24.474705 24.474705 0 0 0 33.8925 35.326664l78.61167-75.425443a24.485543 24.485543 0 0 0 3.153715-31.631073l-68.904876-99.16681 68.904876-99.170423a24.478318 24.478318 0 0 0-3.157328-31.623848z" fill="" p-id="2390"></path></svg>