<?xml version="1.0" standalone="no"?><!DOCTYPE svg PUBLIC "-//W3C//DTD SVG 1.1//EN" "http://www.w3.org/Graphics/SVG/1.1/DTD/svg11.dtd"><svg t="1628158064937" class="icon" viewBox="0 0 1024 1024" version="1.1" xmlns="http://www.w3.org/2000/svg" p-id="2520" xmlns:xlink="http://www.w3.org/1999/xlink" width="200" height="200"><defs><style type="text/css"></style></defs><path d="M392.8576 467.2H117.1712C73.8432 467.2 38.4 432.1792 38.4 389.3888V117.1584c0-42.7776 35.456-77.7856 78.7712-77.7856h275.6864c43.328 0 78.7712 35.008 78.7712 77.7856v272.256c0 42.7776-35.456 77.7728-78.7712 77.7728z m0.4864-77.7984v38.8992-38.8992zM117.1712 117.1584v272.256h275.6864V117.1456H117.1712z m632.1152 388.928c-19.6864 0-37.4144-7.7824-51.2-21.3888L534.656 323.2896c-13.7856-13.6064-21.6576-31.104-21.6576-50.56s7.872-36.9536 21.6576-50.56L698.112 58.816c27.5584-27.2256 74.8288-27.2256 102.4 0l163.4432 163.3536C977.728 235.776 985.6 253.2736 985.6 272.7296s-7.872 36.9536-21.6576 50.56l-163.456 161.408c-13.7728 13.6064-31.5008 21.3888-51.2 21.3888z m-153.6-233.3568l155.5712 153.6256 153.6-153.6256L749.2864 119.104l-153.6 153.6256zM392.8576 972.8H117.1712C73.8432 972.8 38.4 937.792 38.4 895.0144v-272.256c0-42.7776 35.456-77.7856 78.7712-77.7856h275.6864c43.328 0 78.7712 35.008 78.7712 77.7856v272.256c0 42.7776-35.456 77.7856-78.7712 77.7856z m0.4864-77.7856v38.8864-38.8864zM117.1712 622.7584v272.256h275.6864v-272.256H117.1712zM906.8288 972.8H631.1424c-43.328 0-78.7712-35.008-78.7712-77.7856v-272.256c0-42.7776 35.456-77.7856 78.7712-77.7856h275.6864c43.328 0 78.7712 35.008 78.7712 77.7856v272.256C985.6 937.792 950.144 972.8 906.8288 972.8z m0.4864-77.7856v38.8864-38.8864z m-276.1728-272.256v272.256h275.6864v-272.256H631.1424z" p-id="2521"></path></svg>